<svg width="108" height="109" viewBox="0 0 108 109" fill="none" xmlns="http://www.w3.org/2000/svg">
<path d="M47.9865 4.0362C49.8506 -1.34539 57.4615 -1.34539 59.3256 4.03619L63.8995 17.2412C65.0771 20.6408 68.9613 22.2469 72.196 20.6717L84.6308 14.6163C89.7259 12.1351 95.1036 17.4496 92.6828 22.5736L86.5601 35.5333C85.0451 38.7402 86.6274 42.5544 89.9677 43.7469L103.33 48.5177C108.64 50.4135 108.64 57.9231 103.33 59.8189L89.9677 64.5897C86.6274 65.7823 85.0451 69.5964 86.5601 72.8033L92.6828 85.763C95.1036 90.887 89.7259 96.2015 84.6308 93.7203L72.196 87.6649C68.9613 86.0897 65.0771 87.6958 63.8995 91.0954L59.3256 104.3C57.4615 109.682 49.8506 109.682 47.9865 104.3L43.4126 91.0954C42.235 87.6958 38.3508 86.0897 35.1162 87.6649L22.6813 93.7204C17.5862 96.2015 12.2085 90.887 14.6293 85.763L20.752 72.8033C22.2671 69.5964 20.6847 65.7823 17.3445 64.5897L3.98251 59.8189C-1.3275 57.9231 -1.3275 50.4135 3.98251 48.5177L17.3444 43.7469C20.6847 42.5544 22.2671 38.7402 20.752 35.5333L14.6293 22.5736C12.2085 17.4496 17.5862 12.1351 22.6813 14.6163L35.1162 20.6717C38.3509 22.2469 42.235 20.6408 43.4126 17.2412L47.9865 4.0362Z" fill="#FFE100"/>
</svg>
